<?xml version="1.0" standalone="no"?>
<!DOCTYPE svg PUBLIC "-//W3C//DTD SVG 20010904//EN"
 "http://www.w3.org/TR/2001/REC-SVG-20010904/DTD/svg10.dtd">
<svg version="1.0" xmlns="http://www.w3.org/2000/svg"
 width="261.000000pt" height="261.000000pt" viewBox="0 0 261.000000 261.000000"
 preserveAspectRatio="xMidYMid meet">
<metadata>
Created by potrace 1.11, written by Peter Selinger 2001-2013
</metadata>
<g transform="translate(0.000000,261.000000) scale(0.100000,-0.100000)"
fill="#000000" stroke="none">
<path d="M1288 2496 c-42 -24 -83 -46 -90 -50 -7 -4 -22 -12 -33 -19 -31 -18
-175 -102 -216 -125 -20 -11 -95 -54 -165 -95 -71 -41 -199 -115 -284 -164
-133 -77 -158 -95 -175 -129 -20 -38 -20 -56 -19 -609 1 -314 2 -580 3 -592 1
-29 49 -83 97 -109 22 -12 71 -40 111 -62 39 -23 87 -50 105 -61 18 -10 191
-110 383 -221 309 -179 355 -203 395 -204 41 -1 76 17 395 202 193 111 357
208 366 215 79 61 28 195 -74 195 -17 0 -98 -41 -210 -105 -100 -58 -226 -131
-280 -162 -54 -31 -110 -64 -125 -73 -65 -40 -78 -35 -492 205 -212 122 -395
229 -406 237 -44 32 -45 38 -45 530 0 460 1 470 21 498 13 18 168 113 418 257
323 187 404 230 433 229 27 0 71 -19 160 -71 68 -39 140 -80 159 -91 19 -10
96 -55 170 -98 175 -103 181 -105 222 -93 41 11 50 17 71 49 22 32 22 78 -2
115 -17 27 -76 64 -355 223 -22 13 -118 68 -212 123 -205 119 -212 120 -326
55z"/>
<path d="M2220 1822 c-8 -3 -130 -70 -270 -150 -140 -80 -280 -159 -310 -175
-30 -17 -66 -38 -80 -47 -14 -9 -55 -33 -91 -53 l-65 -36 -120 69 c-65 39
-130 77 -144 85 -209 125 -420 245 -432 245 -32 0 -68 -40 -68 -75 0 -44 -3
-42 380 -267 361 -212 368 -216 395 -210 16 3 381 208 713 399 l43 24 -2 -403
c-2 -335 0 -407 12 -426 26 -41 86 -41 114 1 21 34 26 977 5 999 -18 17 -59
28 -80 20z"/>
</g>
</svg>
