<?xml version="1.0" encoding="utf-8"?>
<!-- Generator: Adobe Illustrator 21.0.0, SVG Export Plug-In . SVG Version: 6.00 Build 0)  -->
<svg version="1.1" id="Layer_1" xmlns="http://www.w3.org/2000/svg" xmlns:xlink="http://www.w3.org/1999/xlink" x="0px" y="0px"
	 viewBox="0 0 261 261" style="enable-background:new 0 0 261 261;" xml:space="preserve">
<style type="text/css">
	.st0{fill:#135B9F;}
	.st1{fill:#0F9FC6;}
</style>
<g transform="translate(0.000000,261.000000) scale(0.100000,-0.100000)">
	<path class="st0" d="M1288,2496c-42-24-83-46-90-50s-22-12-33-19c-31-18-175-102-216-125c-20-11-95-54-165-95
		c-71-41-199-115-284-164c-133-77-158-95-175-129c-20-38-20-56-19-609c1-314,2-580,3-592c1-29,49-83,97-109c22-12,71-40,111-62
		c39-23,87-50,105-61c18-10,191-110,383-221c309-179,355-203,395-204c41-1,76,17,395,202c193,111,357,208,366,215
		c79,61,28,195-74,195c-17,0-98-41-210-105c-100-58-226-131-280-162s-110-64-125-73c-65-40-78-35-492,205C768,655,585,762,574,770
		c-44,32-45,38-45,530c0,460,1,470,21,498c13,18,168,113,418,257c323,187,404,230,433,229c27,0,71-19,160-71c68-39,140-80,159-91
		c19-10,96-55,170-98c175-103,181-105,222-93c41,11,50,17,71,49c22,32,22,78-2,115c-17,27-76,64-355,223c-22,13-118,68-212,123
		C1409,2560,1402,2561,1288,2496z"/>
	<path class="st1" d="M2220,1822c-8-3-130-70-270-150s-280-159-310-175c-30-17-66-38-80-47s-55-33-91-53l-65-36l-120,69
		c-65,39-130,77-144,85c-209,125-420,245-432,245c-32,0-68-40-68-75c0-44-3-42,380-267c361-212,368-216,395-210
		c16,3,381,208,713,399l43,24l-2-403c-2-335,0-407,12-426c26-41,86-41,114,1c21,34,26,977,5,999C2282,1819,2241,1830,2220,1822z"/>
</g>
</svg>
