<svg xmlns="http://www.w3.org/2000/svg" viewBox="0 0 317.54 393.81"><defs><style>.cls-1{fill:#165a9d;}.cls-2{fill:#02a0c6;}</style></defs><title>Asset 14</title><g id="Layer_2" data-name="Layer 2"><g id="Layer_1-2" data-name="Layer 1"><path class="cls-1" d="M297.08,305.31a17.32,17.32,0,0,0-22.43-7c-.41.2-.82.39-1.22.62L230.73,323.7l-47.52,27.44a20,20,0,0,1-20,0L44.64,282.68a20,20,0,0,1-10-17.32V128.45a20,20,0,0,1,10-17.32L163.21,42.68a20,20,0,0,1,20,0l5.91,3.41,84.33,48.84a17.39,17.39,0,0,0,23.64-6.35v0a17.41,17.41,0,0,0-6.33-23.68l-58-33.57L189.54,6.26c-.4-.23-.82-.43-1.23-.63l-5.11-2.95a20,20,0,0,0-20,0L10,91.13A20,20,0,0,0,0,108.45V285.36a20,20,0,0,0,10,17.32l153.21,88.45a20,20,0,0,0,20,0l4.47-2.58a17.32,17.32,0,0,0,1.86-.92l84.92-49.19,16.3-9.44a17.41,17.41,0,0,0,6.33-23.68Z"/><path class="cls-2" d="M317.48,124.71a10,10,0,0,0-1.25-6h0c-3.05-5.29-10.5-6.76-16.55-3.27L173.44,187.18,69,125.77a11.14,11.14,0,0,0-15.17,4.07h0A11.14,11.14,0,0,0,57.86,145l109.94,64.63a11.13,11.13,0,0,0,11.69-.38c.27-.13.53-.26.79-.41L295.2,143.52l-.88,124.41c0,6.61,5,12,11.11,12s11.11-5.4,11.11-12l1-142C317.54,125.54,317.52,125.12,317.48,124.71Z"/></g></g></svg>